<svg width="2213" height="1790" viewBox="0 0 2213 1790" fill="none" xmlns="http://www.w3.org/2000/svg">
<Rect x="849.258" y="448.848" width="889.392" height="436.482" fill="#71DDC3"/>
<Rect x="1751.22" y="898.703" width="461.773" height="891.126" fill="#71DDC3"/>
<Path d="M837.273 730.152V885.064C574.179 885.064 375.5 885.064 375.5 885.064C375.5 622.374 574.179 448.594 837.273 448.594C837.273 448.594 837.273 467.462 837.273 730.152Z" fill="#189476"/>
<Path d="M2213 281.558V436.47C1949.9 436.47 1751.22 436.47 1751.22 436.47C1751.22 173.78 1949.9 -5.88579e-09 2213 -5.88579e-09C2213 -5.88579e-09 2213 18.8684 2213 281.558Z" fill="#71DDC3"/>
<Rect x="850.066" y="898.703" width="466.566" height="442.532" fill="#189476"/>
<Path d="M1738.45 1344.27C1738.45 1590.34 1556.03 1789.83 1331 1789.83C1331 1789.83 1331 1590.34 1331 1344.27C1331 1098.19 1331 898.703 1331 898.703C1556.03 898.703 1738.45 1098.19 1738.45 1344.27Z" fill="#71DDC3"/>
<Path d="M850.059 1508.27V1353.36C1113.15 1353.36 1311.83 1353.36 1311.83 1353.36C1311.83 1616.05 1113.15 1789.83 850.059 1789.83C850.059 1789.83 850.059 1770.96 850.059 1508.27Z" fill="#393938"/>
<Rect x="370.695" y="1353.36" width="466.566" height="436.47" fill="#71DDC3"/>
<Rect y="898.703" width="837.263" height="442.532" fill="#393938"/>
<Path d="M1751.23 603.506V448.594C2014.32 448.594 2213 448.594 2213 448.594C2213 711.284 2014.32 885.064 1751.23 885.064C1751.23 885.064 1751.23 866.196 1751.23 603.506Z" fill="#189476"/>
<Ellipse cx="1084.18" cy="1103.03" rx="118.239" ry="112.148" fill="white"/>
<Ellipse cx="1939.93" cy="624.287" rx="118.239" ry="112.148" fill="white"/>
</svg>
