<?xml version="1.0" encoding="UTF-8"?>
<svg xmlns="http://www.w3.org/2000/svg" viewBox="0 0 512 512">
  <defs>
    <style>.cls-1{isolation:isolate;}.cls-2{fill:#adadad;}.cls-3{opacity:0.7;}.cls-4{fill:#fff;}.cls-13,.cls-5{fill:#4cd88a;}.cls-6{fill:#d8d8d8;}.cls-14,.cls-7{fill:#794bd8;}.cls-8{fill:#9f83ea;}.cls-9{fill:#4828a3;}.cls-10,.cls-12{fill:#34b267;}.cls-11,.cls-12,.cls-13{fill-rule:evenodd;}.cls-14{mix-blend-mode:multiply;}.cls-15{fill:none;stroke:#000;stroke-miterlimit:10;stroke-width:7px;}</style>
  </defs>
  <title>1 FAVICON</title>
  <g class="cls-1">
    <g id="Capa_2" data-name="Capa 2">
      <path class="cls-2" d="M285.59,272.43,198.89,320l14.16,106,13.82-7.57-4-29.77a18.56,18.56,0,0,1,8.05-17.86,169.43,169.43,0,0,0,26.38-21.87,171.9,171.9,0,0,0,12.35-14.07Z"></path>
      <path class="cls-2" d="M254.76,240.07,189,318.68,82.9,288l10.47-12.53,29.81,8.64a20.33,20.33,0,0,0,19.92-5.18,182.52,182.52,0,0,1,27.61-22.75,184.58,184.58,0,0,1,16.86-10Z"></path>
      <g class="cls-3">
        <polygon class="cls-4" points="87.66 277.68 81.45 283.63 215.65 293.17 223.97 285.21 87.66 277.68"></polygon>
      </g>
      <g class="cls-3">
        <polygon class="cls-4" points="223.97 285.21 215.65 293.17 219.44 427.65 225.65 421.7 223.97 285.21"></polygon>
      </g>
      <path d="M153.29,358l-104-48.72,37-35.42L232.68,282ZM62.21,307.2l89.63,42,63.41-60.76-126.18-7Z"></path>
      <path class="cls-5" d="M112.57,241.77c5.31,5.54-13.28,28.14-21.71,35.86L43,321.46a7.35,7.35,0,0,1-10.28-.34l-2.82-2.94a7.35,7.35,0,0,1,.1-10.29l45.84-46c8.07-8.1,31.45-25.7,36.76-20.16"></path>
      <path d="M192.4,458.68l-44.23-106,79.39-76.06,1.81,146.62ZM157,354.53l38.11,91.34,26.86-25.73-1.56-126.36Z"></path>
      <path class="cls-5" d="M262.59,398.36c-5.3-5.54-28.68,12.06-36.75,20.16l-45.85,46a7.37,7.37,0,0,0-.1,10.29l2.82,3a7.37,7.37,0,0,0,10.29.33l47.88-43.83c8.44-7.72,27-30.32,21.71-35.86"></path>
      <path d="M190.19,483.45A11.11,11.11,0,0,1,180,480.28l-2.82-2.95a11.14,11.14,0,0,1,.15-15.46l45.85-46c6.58-6.6,26.45-22.4,36.51-22.3a7.5,7.5,0,0,1,5.54,2.2h0a7.53,7.53,0,0,1,2,5.62c-.33,10.06-17,29.23-23.85,35.53l-47.89,43.83A10.88,10.88,0,0,1,190.19,483.45Zm68.22-82.4c-5.81,1.13-21.07,11.18-30,20.08l-45.85,46a3.68,3.68,0,0,0-.05,5.11l2.82,3a3.69,3.69,0,0,0,5.12.16l47.88-43.83c10.21-9.34,22.13-26.35,21.48-30.51A3.89,3.89,0,0,0,258.41,401.05Zm1.69,0h0Z"></path>
      <path d="M40.17,326.86A11.12,11.12,0,0,1,30,323.68l-2.82-2.94a11.13,11.13,0,0,1,.16-15.46l45.84-46c6.59-6.6,26.44-22.4,36.52-22.3a7.17,7.17,0,0,1,7.49,7.82c-.33,10.06-17,29.23-23.84,35.53L45.47,324.19A11.05,11.05,0,0,1,40.17,326.86Zm68.21-82.41c-5.81,1.14-21.07,11.18-29.95,20.09l-45.84,46a3.64,3.64,0,0,0-.05,5.12l2.82,2.94a3.67,3.67,0,0,0,5.11.17L88.36,274.9c10.21-9.35,22.13-26.35,21.47-30.51A3.86,3.86,0,0,0,108.38,244.45Zm1.7,0Z"></path>
      <path class="cls-6" d="M375.38,270.18C308.45,334.31,234.44,368.66,204.19,381a21.87,21.87,0,0,1-24.06-5.11l-48.61-50.75a21.87,21.87,0,0,1-4.09-24.26A544.84,544.84,0,0,1,159,242.4l.12-.19C177.78,212,203.81,176,238,141.87c2.45-2.44,4.93-4.88,7.45-7.29q8.48-8.12,16.89-15.54c3.18-2.83,6.36-5.56,9.53-8.23,1.75-1.47,3.49-2.93,5.23-4.35q2.88-2.37,5.76-4.67a475.14,475.14,0,0,1,65.09-44c77.59-43.32,138.85-45.95,149.6-34.71C512.79,39,496,154.64,375.38,270.18"></path>
      <path class="cls-7" d="M129.09,322.6l-6.91,6.61a13.4,13.4,0,0,0-.4,18.94l34.93,36.46a13.39,13.39,0,0,0,18.93.4l6.91-6.62Z"></path>
      <g class="cls-3">
        <path class="cls-4" d="M129.09,322.6l-6.91,6.61a13.39,13.39,0,0,0-.4,18.93l5.78,6a13.37,13.37,0,0,1,.4-18.92l6.91-6.62Z"></path>
      </g>
      <g class="cls-3">
        <path class="cls-4" d="M180.55,376.3l-6.92,6.62a13.37,13.37,0,0,1-18.92-.41l-5.78-6c1.6,1.68,6.54,6,8.61,6.64A13.39,13.39,0,0,0,170.86,380l6.91-6.62Z"></path>
      </g>
      <path class="cls-7" d="M106.92,352.5a6.79,6.79,0,0,0-.21,9.6l35.42,37a6.79,6.79,0,0,0,11.45-2.92l3.13-11.53-34.93-36.46-11.66,2.63a6.68,6.68,0,0,0-3.2,1.72"></path>
      <g class="cls-3">
        <path class="cls-4" d="M106.92,352.5a6.78,6.78,0,0,0-.21,9.6l5.05,5.27A6.81,6.81,0,0,1,115.17,356l11.66-2.63-5-5.27-11.65,2.64a6.67,6.67,0,0,0-3.21,1.72"></path>
      </g>
      <g class="cls-3">
        <path class="cls-4" d="M152.31,399.87a6.78,6.78,0,0,1-9.6-.2l-5.05-5.27a6.78,6.78,0,0,0,9.6.2,6.87,6.87,0,0,0,1.86-3.13l3.12-11.53,5.06,5.27-3.13,11.53a6.73,6.73,0,0,1-1.86,3.13"></path>
      </g>
      <path class="cls-7" d="M345.72,59a525.73,525.73,0,0,0,49.73,60,524.49,524.49,0,0,0,59.89,53.82C503,96.39,508.41,34.4,497.57,23.08s-73.2-8.56-151.85,36"></path>
      <path class="cls-8" d="M478.74,72.19c-5.15-3.11-12,1.18-20.9,23.11-6.2,15.24,6.2,18.14,12.78,12,11-10.29,14.18-31.4,8.12-35.07"></path>
      <path class="cls-8" d="M347.36,57.78c.88,1.24,1.75,2.48,2.66,3.72C421.49,24.77,476.71,23,486.87,33.63s6.06,65.52-33.52,135.2c1.21.94,2.42,1.88,3.63,2.8C504.63,95.12,510.05,33.14,499.2,21.82s-73.19-8.56-151.84,36"></path>
      <path d="M169.69,392.1A17.08,17.08,0,0,1,154,387.17l-34.93-36.46a17.12,17.12,0,0,1,.51-24.17l9.58-9.18,58.58,61.14-9.58,9.18A16.89,16.89,0,0,1,169.69,392.1ZM129,327.83l-4.24,4.06a9.7,9.7,0,0,0-.29,13.7l34.93,36.46a9.71,9.71,0,0,0,13.7.29l4.24-4.06Z"></path>
      <path d="M149.06,404.66a10.56,10.56,0,0,1-2.26.19,10.44,10.44,0,0,1-7.35-3.23l-35.41-37a10.51,10.51,0,0,1,.32-14.84h0a10.51,10.51,0,0,1,5-2.66L123,344.08l37.83,39.48-3.68,13.54a10.5,10.5,0,0,1-8.09,7.56Zm-39.58-49.49a3.09,3.09,0,0,0-.09,4.37l35.41,37a3.08,3.08,0,0,0,4.36.09,3.12,3.12,0,0,0,.85-1.41l2.58-9.52-32-33.44-9.61,2.16a3,3,0,0,0-1.46.79Z"></path>
      <path class="cls-7" d="M237.72,187.41a58.57,58.57,0,1,0,82.82,1.77,58.32,58.32,0,0,0-82.82-1.77"></path>
      <path class="cls-9" d="M236.53,273.18c11.87,11.1,28.23,16.13,44.5,15.09A64.45,64.45,0,0,0,319,273c20.85-18,24.6-45.69,10.43-66,5,17.74-.88,37.72-17.17,51.76a64.35,64.35,0,0,1-37.94,15.27c-16.27,1-32.62-4-44.5-15.1a50.6,50.6,0,0,1-6.9-7.94,47.87,47.87,0,0,0,13.64,22.15"></path>
      <path d="M290.23,290.38A61.85,61.85,0,0,1,235.44,185h0a61.88,61.88,0,1,1,54.79,105.36Zm-52-102.7a57.62,57.62,0,1,0,41.1-16,57.7,57.7,0,0,0-41.1,16Z"></path>
      <path class="cls-5" d="M250.23,256.13a38.8,38.8,0,0,0,47.66,6.63,39,39,0,0,0,12.18-11.26,38.81,38.81,0,0,0-56-52.56c-.92.73-1.81,1.51-2.67,2.33a38.79,38.79,0,0,0-1.17,54.86"></path>
      <path class="cls-10" d="M245.5,250.13a39.34,39.34,0,0,0,4.73,6,38.8,38.8,0,0,0,47.66,6.63,39,39,0,0,0,12.18-11.26,38.8,38.8,0,0,0-3.81-49.05l-.44-.45a38.78,38.78,0,0,1-5.89,48.86,39.27,39.27,0,0,1-7.2,5.46,38.84,38.84,0,0,1-47.23-6.19"></path>
      <path class="cls-2" d="M410.9,134.57s28.19,43.65-8.54,102.44c0,0,31.31-28.92,54.62-65.38Z"></path>
      <path id="_531174168" data-name=" 531174168" class="cls-11" d="M99.34,489.5,15,403.43c-10.92-11.15-11.49-28.36-1.26-38.38,9.65-9.46,25.52-9.16,36.45.27,9.94-4.7,22.39-2.4,31.12,6l16.37-16c.25-.25.51-.48.77-.71a4.59,4.59,0,0,1,6.31.23l45,45.92a4.6,4.6,0,0,1,.11,6.3c-.24.26-.47.51-.74.77l-16.37,16c8.26,8.91,10.29,21.39,5.39,31.23,9.2,11.13,9.17,27-.48,36.45-10.22,10-27.43,9.1-38.35-2Zm-53.78-116c-7.38-7.53-18.76-8.39-25.36-1.92s-6,17.87,1.39,25.39l84.31,86.07c7.37,7.52,18.75,8.38,25.36,1.91s6-17.86-1.39-25.39a7.67,7.67,0,0,0-.58-.56,4.65,4.65,0,0,1-.57-6c4.74-6.68,3.41-16.72-3.12-23.38h0a22.42,22.42,0,0,0-2.31-2.05,4.69,4.69,0,0,1-1.79-3.37,4.61,4.61,0,0,1,1.37-3.55L140,403.91l-38.58-39.39L84.28,381.3a4.58,4.58,0,0,1-6.9-.57,24.93,24.93,0,0,0-2-2.35c-6.52-6.65-16.53-8.2-23.31-3.6a4.66,4.66,0,0,1-6-.69c-.16-.19-.34-.37-.53-.56Z"></path>
      <path class="cls-12" d="M45.56,373.53c-7.38-7.53-18.76-8.39-25.36-1.92s-6,17.87,1.39,25.39l84.31,86.07c7.37,7.52,18.75,8.38,25.36,1.91s6-17.86-1.39-25.39a7.67,7.67,0,0,0-.58-.56,4.65,4.65,0,0,1-.57-6c4.74-6.68,3.41-16.72-3.12-23.38h0a22.42,22.42,0,0,0-2.31-2.05,4.69,4.69,0,0,1-1.79-3.37,4.61,4.61,0,0,1,1.37-3.55L140,403.91l-38.58-39.39L84.28,381.3a4.58,4.58,0,0,1-6.9-.57,24.93,24.93,0,0,0-2-2.35c-6.52-6.65-16.53-8.2-23.31-3.6a4.66,4.66,0,0,1-6-.69c-.16-.19-.34-.37-.53-.56Z"></path>
      <path class="cls-13" d="M75,388.71c-3.51-3.58-10.52-2.43-15.62,2.56s-6.4,12-2.89,15.57l40.13,41c3.51,3.58,10.52,2.43,15.62-2.57s6.39-12,2.88-15.56l-.28-.27c-.77-.74-.57-2.27.53-3.63,4-4.85,4.61-10.89,1.51-14h0a6.47,6.47,0,0,0-1.15-.94,1.7,1.7,0,0,1-.62-1.82,4.67,4.67,0,0,1,1.38-2.41l13.22-12.95-18.36-18.75L98.15,387.8a4.7,4.7,0,0,1-2.44,1.34,1.72,1.72,0,0,1-1.81-.66,6.44,6.44,0,0,0-.91-1.17c-3.1-3.17-9.15-2.64-14.08,1.22-1.38,1.07-2.91,1.23-3.64.45l-.25-.27Z"></path>
      <path class="cls-5" d="M332.79,124.14a37.32,37.32,0,1,0,52.77,1.13,37.16,37.16,0,0,0-52.77-1.13"></path>
      <path class="cls-10" d="M332,178.79c7.56,7.07,18,10.28,28.35,9.62a41,41,0,0,0,24.17-9.73c13.29-11.45,15.68-29.11,6.65-42,3.17,11.3-.56,24-10.94,33a41,41,0,0,1-24.17,9.73c-10.37.65-20.79-2.55-28.35-9.62a31.48,31.48,0,0,1-4.4-5.06A30.44,30.44,0,0,0,332,178.79"></path>
      <path d="M366.25,189.75a39.42,39.42,0,0,1-34.92-67.13h0a39.43,39.43,0,1,1,34.92,67.13Zm-32-64.09a35.23,35.23,0,1,0,25.12-9.78,35.25,35.25,0,0,0-25.12,9.78Z"></path>
      <path class="cls-7" d="M340.76,167.93a24.69,24.69,0,0,0,34.95.75,25.11,25.11,0,0,0,3.18-3.7,24.73,24.73,0,0,0-35.69-33.49c-.58.46-1.15,1-1.7,1.49a25.44,25.44,0,0,0-2.84,3.24,24.72,24.72,0,0,0,2.1,31.71"></path>
      <path class="cls-9" d="M337.75,164.1a24.7,24.7,0,0,0,38,4.58,25.11,25.11,0,0,0,3.18-3.7,24.75,24.75,0,0,0-2.43-31.26l-.28-.28a24.77,24.77,0,0,1-.58,27.43,25,25,0,0,1-3.17,3.7,25.59,25.59,0,0,1-4.59,3.48,24.72,24.72,0,0,1-30.09-4"></path>
      <path class="cls-2" d="M245.45,134.57C178.52,198.7,141,271.18,127.43,300.86a21.88,21.88,0,0,0,4.08,24.26l48.62,50.74A21.86,21.86,0,0,0,204.19,381c30.24-12.32,104.26-46.67,171.19-110.79q10.39-10,19.79-19.92c-59.08,57.21-162.94,126.14-212.07,74.86S208,170.48,266.2,115.65q-10.33,9-20.75,18.92"></path>
      <path class="cls-14" d="M299.38,329.12C176.32,291.54,185.1,207.87,185.1,207.87L170,225.5s-5.08,91.34,112,118.58l17.43-15"></path>
      <path d="M200.77,385.85a25.42,25.42,0,0,1-23.31-7.42l-48.62-50.75a25.44,25.44,0,0,1-4.77-28.36c13.15-28.71,51.08-102.51,118.82-167.42h0C309.17,68.41,370.27,39.28,409.85,26c47.56-15.92,81.46-14.82,90.38-5.51s8.57,43.24-9.37,90.06c-14.94,39-46.65,98.78-112.92,162.28-67.75,64.91-143.1,99.63-172.35,111.55A26.34,26.34,0,0,1,200.77,385.85ZM445,24.25a263,263,0,0,0-32.77,8.8c-38.87,13-98.9,41.65-164.18,104.2h0c-66.84,64-104.25,136.83-117.23,165.15a18.09,18.09,0,0,0,3.39,20.16l48.62,50.75a18.1,18.1,0,0,0,20,4.25c28.86-11.76,103.2-46,170-110C438.1,205,469.28,146.21,484,107.94c17.49-45.67,16.87-76.11,10.94-82.3C490.5,21.06,472.72,18.81,445,24.25ZM245.46,134.57Z"></path>
      <path class="cls-15" d="M350,61.5s47.15,71.38,107,110.13"></path>
    </g>
  </g>
</svg>
